<svg xmlns="http://www.w3.org/2000/svg" xmlns:xlink="http://www.w3.org/1999/xlink" fill="none" version="1.1" width="70" height="70" viewBox="0 0 70 70"><g><g><rect x="0" y="0" width="70" height="70" rx="12" fill="#FFFFFF" fill-opacity="1"/></g><g><g><path d="M7,26.333216076660158L7,46.010616076660156Q7.000263623,46.25591607666016,7.0126644,46.500916076660154Q7.0250652,46.74591607666016,7.0495733,46.990016076660154Q7.0740814,47.23411607666016,7.110638,47.47671607666015Q7.147194,47.71941607666015,7.195711,47.95991607666016Q7.244228,48.20051607666016,7.304589,48.438416076660154Q7.364949,48.67631607666016,7.437008,48.911016076660154Q7.509067,49.14571607666016,7.592652,49.376616076660156Q7.676236,49.607516076660154,7.771144,49.83411607666016Q7.866052,50.06071607666016,7.972056,50.282416076660155Q8.07806,50.504116076660154,8.1949,50.720316076660154Q8.31175,50.93661607666016,8.43915,51.146916076660155Q8.566559999999999,51.35721607666016,8.70421,51.561116076660156Q8.84187,51.76501607666015,8.98945,51.962016076660156Q9.13703,52.158916076660155,9.29418,52.348516076660154Q9.451319999999999,52.538016076660156,9.61766,52.719716076660156Q9.78399,52.901416076660155,9.959109999999999,53.07471607666016Q10.13424,53.24811607666015,10.317730000000001,53.41281607666016Q10.50122,53.57741607666016,10.69263,53.73301607666016Q10.88405,53.88851607666015,11.082930000000001,54.034516076660154Q11.28181,54.18061607666016,11.487680000000001,54.31681607666015Q11.69355,54.453016076660155,11.90591,54.579116076660156Q12.118269999999999,54.705116076660154,12.33661,54.820716076660155Q12.55495,54.93621607666016,12.778749999999999,55.04111607666016Q13.00254,55.14591607666016,13.231259999999999,55.23971607666016Q13.45997,55.33351607666015,13.69305,55.41611607666016Q13.92613,55.49871607666016,14.16301,55.56991607666016Q14.399899999999999,55.64101607666016,14.64002,55.700616076660154Q14.88014,55.76021607666016,15.12292,55.80801607666016Q15.3657,55.855816076660155,15.61056,55.891816076660156Q15.85541,55.92781607666016,16.10175,55.95181607666016Q16.34809,55.97581607666016,16.59532,55.987916076660156Q16.84256,55.999916076660156,17.0901,55.999916076660156L7,55.999916076660156L7,56.000116076660156L63,56.000116076660156L63,55.999916076660156L52.9099,55.999916076660156Q53.157,55.999916076660156,53.4037,55.987916076660156Q53.6505,55.975916076660155,53.8963,55.95201607666016Q54.1422,55.92811607666015,54.3866,55.892216076660155Q54.631,55.85641607666015,54.8733,55.80881607666016Q55.1156,55.76111607666016,55.3553,55.70181607666016Q55.595,55.642416076660155,55.8314,55.571616076660156Q56.0679,55.500716076660154,56.3006,55.41841607666016Q56.5333,55.336116076660154,56.7616,55.242616076660155Q56.9899,55.14921607666015,57.2134,55.044816076660155Q57.4368,54.94031607666015,57.6549,54.825216076660155Q57.8729,54.71011607666016,58.085,54.58451607666016Q58.297,54.45891607666016,58.5027,54.32321607666016Q58.7083,54.18751607666016,58.907,54.042016076660154Q59.1056,53.896516076660156,59.2969,53.741516076660155Q59.4881,53.58651607666015,59.6715,53.422416076660156Q59.8549,53.25831607666016,60.0299,53.08561607666016Q60.205,52.91281607666016,60.3713,52.73181607666016Q60.5376,52.55071607666016,60.6948,52.361816076660155Q60.8519,52.17291607666016,60.9996,51.97661607666016Q61.1472,51.78031607666016,61.285,51.577116076660154Q61.4228,51.37391607666016,61.5504,51.16421607666015Q61.678,50.954516076660155,61.795,50.73891607666015Q61.9121,50.52331607666016,62.0184,50.302316076660155Q62.1247,50.08131607666016,62.2199,49.855416076660156Q62.3152,49.62951607666016,62.3992,49.39921607666015Q62.4831,49.16891607666015,62.5556,48.93491607666016Q62.6282,48.70081607666015,62.689,48.463516076660156Q62.7499,48.22621607666016,62.799,47.98631607666016Q62.848,47.74631607666016,62.8852,47.50431607666015Q62.9224,47.26221607666016,62.9475,47.01861607666016Q62.9727,46.775116076660154,62.9858,46.53061607666016Q62.9989,46.28611607666016,62.9999,46.041216076660156L62.9999,26.333416076660157L62.9999,26.333216076660158Q62.9999,26.005916076660156,62.9837,25.679016076660155Q62.9675,25.352116076660156,62.9351,25.02631607666016Q62.9028,24.700616076660154,62.8543,24.376816076660155Q62.8058,24.053116076660157,62.7414,23.73201607666016Q62.677,23.411016076660154,62.5967,23.09351607666016Q62.5165,22.776006076660156,62.4206,22.46278607666016Q62.3247,22.149566076660157,62.2135,21.841386076660157Q62.1022,21.533206076660157,61.9758,21.23080607666016Q61.8494,20.928406076660156,61.7082,20.632516076660156Q61.567,20.336626076660156,61.4114,20.047956076660157Q61.2557,19.759296076660156,61.0859,19.478546076660155Q60.9161,19.197796076660154,60.7326,18.925646076660158Q60.5491,18.653496076660154,60.3524,18.390596076660156Q60.1556,18.127686076660154,59.9461,17.87467607666016Q59.7366,17.621656076660155,59.5148,17.379126076660157Q59.293,17.136606076660158,59.0595,16.905156076660155Q58.826,16.673716076660156,58.5813,16.453896076660158Q58.3365,16.234086076660155,58.0812,16.026446076660157Q57.826,15.818796076660156,57.5607,15.623816076660155Q57.2954,15.428836076660156,57.0208,15.246986076660157Q56.7462,15.065146076660156,56.4629,14.896866076660157Q56.1796,14.728596076660157,55.8884,14.574296076660156Q55.5971,14.420006076660156,55.2986,14.280056076660156Q55,14.140116076660156,54.6949,14.014856076660156Q54.3898,13.889597076660156,54.0788,13.779328076660157Q53.7678,13.669059076660156,53.4518,13.574045076660155Q53.1358,13.479030076660155,52.8154,13.399499076660156Q52.495,13.319968076660157,52.1711,13.256112076660155Q51.8472,13.192256076660156,51.5205,13.144229076660157Q51.1938,13.096202176660157,50.8651,13.064119676660157Q50.5365,13.032037276660157,50.2066,13.015976676660156Q49.8767,12.999916076660156,49.5465,12.999916076660156Q49.2162,12.999916076660156,48.8863,13.015976676660156Q48.5565,13.032037276660157,48.2278,13.064119676660157Q47.8991,13.096202176660157,47.5724,13.144229076660157Q47.2457,13.192256076660156,46.9218,13.256112076660155Q46.5979,13.319968076660157,46.2775,13.399499076660156Q45.9572,13.479030076660155,45.6411,13.574045076660155Q45.3251,13.669059076660156,45.0141,13.779328076660157Q44.7032,13.889597076660156,44.3981,14.014856076660156Q44.0929,14.140116076660156,43.7944,14.280056076660156Q43.4958,14.420006076660156,43.2046,14.574296076660156Q42.9133,14.728596076660157,42.63,14.896866076660157Q42.3467,15.065146076660156,42.0721,15.246986076660157Q41.7975,15.428836076660156,41.5323,15.623816076660155Q41.267,15.818796076660156,41.0117,16.026446076660157Q40.7564,16.234086076660155,40.5117,16.453896076660158Q40.267,16.673716076660156,40.0334,16.905156076660155Q39.7999,17.136606076660158,39.5781,17.379126076660157Q39.3563,17.621656076660155,39.1468,17.87467607666016Q38.9373,18.127686076660154,38.7406,18.390596076660156Q38.543800000000005,18.653496076660154,38.360299999999995,18.925646076660158Q38.1768,19.197796076660154,38.0071,19.478546076660155Q37.8373,19.759296076660156,37.6816,20.047956076660157Q37.5259,20.336626076660156,37.384699999999995,20.632516076660156Q37.2435,20.928406076660156,37.1171,21.23080607666016Q36.990700000000004,21.533206076660157,36.879400000000004,21.841386076660157Q36.7682,22.149566076660157,36.6723,22.46278607666016Q36.5764,22.776006076660156,36.4962,23.09351607666016Q36.416,23.411016076660154,36.3515,23.73201607666016Q36.287099999999995,24.053116076660157,36.238600000000005,24.376816076660155Q36.190200000000004,24.700616076660154,36.1578,25.02631607666016Q36.1254,25.352116076660156,36.1092,25.679016076660155Q36.093,26.005916076660156,36.093,26.333216076660158L36.093,26.333416076660157L33.9069,26.333416076660157L33.9069,26.333216076660158Q33.9069,26.005916076660156,33.890699999999995,25.679016076660155Q33.8745,25.352116076660156,33.8421,25.02631607666016Q33.809799999999996,24.700616076660154,33.7613,24.376816076660155Q33.7128,24.053116076660157,33.648399999999995,23.73201607666016Q33.584,23.411016076660154,33.503699999999995,23.09351607666016Q33.423500000000004,22.776006076660156,33.327600000000004,22.46278607666016Q33.231700000000004,22.149566076660157,33.1205,21.841386076660157Q33.0092,21.533206076660157,32.8828,21.23080607666016Q32.7564,20.928406076660156,32.6152,20.632516076660156Q32.474000000000004,20.336626076660156,32.3183,20.047956076660157Q32.1627,19.759296076660156,31.9929,19.478546076660155Q31.8231,19.197796076660154,31.6396,18.925646076660158Q31.4561,18.653496076660154,31.2594,18.390596076660156Q31.0626,18.127686076660154,30.8531,17.87467607666016Q30.6436,17.621656076660155,30.4218,17.379126076660157Q30.2,17.136606076660158,29.9665,16.905156076660155Q29.7329,16.673716076660156,29.4882,16.453896076660158Q29.2435,16.234086076660155,28.9882,16.026446076660157Q28.7329,15.818796076660156,28.4677,15.623816076660155Q28.2024,15.428836076660156,27.9278,15.246986076660157Q27.6532,15.065146076660156,27.3699,14.896866076660157Q27.0866,14.728596076660157,26.7954,14.574296076660156Q26.5041,14.420006076660156,26.2055,14.280056076660156Q25.907,14.140116076660156,25.6019,14.014856076660156Q25.2967,13.889597076660156,24.9858,13.779328076660157Q24.6748,13.669059076660156,24.3588,13.574045076660155Q24.0427,13.479030076660155,23.7224,13.399499076660156Q23.402,13.319968076660157,23.0781,13.256112076660155Q22.7542,13.192256076660156,22.427500000000002,13.144229076660157Q22.1008,13.096202176660157,21.772100000000002,13.064119676660157Q21.4434,13.032037276660157,21.113599999999998,13.015976676660156Q20.7837,12.999916076660156,20.4535,12.999916076660156Q20.1232,12.999916076660156,19.793300000000002,13.015976676660156Q19.4635,13.032037276660157,19.1348,13.064119676660157Q18.8061,13.096202176660157,18.4794,13.144229076660157Q18.1527,13.192256076660156,17.8288,13.256112076660155Q17.5049,13.319968076660157,17.1845,13.399499076660156Q16.86416,13.479030076660155,16.54812,13.574045076660155Q16.23208,13.669059076660156,15.92112,13.779328076660157Q15.61016,13.889597076660156,15.30504,14.014856076660156Q14.99992,14.140116076660156,14.701360000000001,14.280056076660156Q14.402809999999999,14.420006076660156,14.11154,14.574296076660156Q13.82027,14.728596076660157,13.536999999999999,14.896866076660157Q13.253720000000001,15.065146076660156,12.97912,15.246986076660157Q12.704509999999999,15.428836076660156,12.43924,15.623816076660155Q12.17397,15.818796076660156,11.918669999999999,16.026446076660157Q11.66338,16.234086076660155,11.418669999999999,16.453896076660158Q11.173960000000001,16.673716076660156,10.94043,16.905156076660155Q10.70689,17.136606076660158,10.4851,17.379126076660157Q10.26331,17.621656076660155,10.05379,17.87467607666016Q9.84428,18.127686076660154,9.64754,18.390596076660156Q9.450800000000001,18.653496076660154,9.26732,18.925646076660158Q9.083829999999999,19.197796076660154,8.91404,19.478546076660155Q8.744250000000001,19.759296076660156,8.58857,20.047956076660157Q8.43288,20.336626076660156,8.29168,20.632516076660156Q8.15047,20.928406076660156,8.02408,21.23080607666016Q7.897697,21.533206076660157,7.786434,21.841386076660157Q7.675172,22.149566076660157,7.579301,22.46278607666016Q7.483431,22.776006076660156,7.403183,23.09351607666016Q7.322936,23.411016076660154,7.258504,23.73201607666016Q7.194073,24.053116076660157,7.145613,24.376816076660155Q7.0971536,24.700616076660154,7.0647821,25.02631607666016Q7.0324105,25.352116076660156,7.0162053,25.679016076660155Q7,26.005916076660156,7,26.333216076660158ZM13.72673,46.023416076660155L13.72673,26.333416076660157L13.72681,26.333416076660157L13.72681,26.333116076660154Q13.72681,26.169416076660156,13.73491,26.006016076660156Q13.74301,25.842516076660154,13.7592,25.679616076660157Q13.77538,25.516816076660156,13.799610000000001,25.354916076660157Q13.82384,25.193016076660157,13.85606,25.03251607666016Q13.88827,24.872016076660156,13.9284,24.713216076660157Q13.96852,24.554416076660157,14.01646,24.397816076660156Q14.06439,24.24121607666016,14.12002,24.087116076660156Q14.175650000000001,23.933016076660156,14.23885,23.781816076660157Q14.30204,23.630616076660154,14.37264,23.482716076660154Q14.443249999999999,23.334816076660154,14.521090000000001,23.190416076660156Q14.59893,23.046116076660155,14.68383,22.905736076660155Q14.76872,22.765356076660154,14.86046,22.629286076660158Q14.952210000000001,22.493206076660158,15.05058,22.361756076660157Q15.14894,22.230306076660156,15.2537,22.103796076660156Q15.35846,21.977286076660157,15.46936,21.856026076660157Q15.58025,21.734766076660158,15.69702,21.619046076660155Q15.81378,21.503316076660155,15.93614,21.393416076660156Q16.05849,21.283506076660156,16.18614,21.179686076660154Q16.313789999999997,21.075856076660155,16.44643,20.978366076660155Q16.57906,20.880876076660158,16.71636,20.789956076660157Q16.85367,20.699036076660157,16.9953,20.614896076660155Q17.1369,20.530756076660158,17.282600000000002,20.453616076660158Q17.4282,20.376466076660158,17.5775,20.306486076660157Q17.7268,20.236516076660156,17.8793,20.173886076660157Q18.0319,20.111256076660155,18.1874,20.056126076660156Q18.3428,20.000996076660158,18.5009,19.953486076660155Q18.6589,19.905976076660156,18.8191,19.866216076660155Q18.979300000000002,19.826446076660154,19.141199999999998,19.794516076660155Q19.3032,19.762586076660156,19.4665,19.738576076660156Q19.6299,19.714566076660155,19.7942,19.69852607666016Q19.9585,19.682476076660155,20.1235,19.674446076660157Q20.2884,19.666416076660155,20.4535,19.666416076660155Q20.6187,19.666416076660155,20.7836,19.674446076660157Q20.9485,19.682476076660155,21.1129,19.69852607666016Q21.2772,19.714566076660155,21.4405,19.738576076660156Q21.6039,19.762586076660156,21.765900000000002,19.794516076660155Q21.927799999999998,19.826446076660154,22.088,19.866216076660155Q22.2482,19.905976076660156,22.4062,19.953486076660155Q22.5642,20.000996076660158,22.7197,20.056126076660156Q22.8752,20.111256076660155,23.0277,20.173886076660157Q23.1803,20.236516076660156,23.3296,20.306486076660157Q23.4789,20.376466076660158,23.6245,20.453616076660158Q23.7701,20.530756076660158,23.9118,20.614896076660155Q24.0534,20.699036076660157,24.1907,20.789956076660157Q24.328,20.880876076660158,24.4606,20.978366076660155Q24.5933,21.075856076660155,24.7209,21.179686076660154Q24.8486,21.283506076660156,24.9709,21.393416076660156Q25.0933,21.503316076660155,25.21,21.619046076660155Q25.3268,21.734766076660158,25.4377,21.856026076660157Q25.5486,21.977286076660157,25.6534,22.103796076660156Q25.7581,22.230306076660156,25.8565,22.361756076660157Q25.9549,22.493206076660158,26.0466,22.629286076660158Q26.1383,22.765356076660154,26.2232,22.905736076660155Q26.3081,23.046116076660155,26.386,23.190416076660156Q26.4638,23.334816076660154,26.5344,23.482716076660154Q26.605,23.630616076660154,26.6682,23.781816076660157Q26.7314,23.933016076660156,26.787,24.087116076660156Q26.8427,24.24121607666016,26.8906,24.397816076660156Q26.9385,24.554416076660157,26.9787,24.713216076660157Q27.0188,24.872016076660156,27.051,25.03251607666016Q27.0832,25.193016076660157,27.1074,25.354916076660157Q27.1317,25.516816076660156,27.1479,25.679616076660157Q27.1641,25.842516076660154,27.1722,26.006016076660156Q27.1803,26.169416076660156,27.1803,26.333116076660154L27.1803,26.333416076660157L27.1802,26.333416076660157L27.1802,33.000116076660156L42.8198,33.000116076660156L42.8198,26.333416076660157L42.8198,26.333116076660154Q42.8198,26.169416076660156,42.8279,26.006016076660156Q42.836,25.842516076660154,42.8522,25.679616076660157Q42.8684,25.516816076660156,42.8926,25.354916076660157Q42.9169,25.193016076660157,42.9491,25.03251607666016Q42.9813,24.872016076660156,43.0214,24.713216076660157Q43.0615,24.554416076660157,43.1095,24.397816076660156Q43.1574,24.24121607666016,43.213,24.087116076660156Q43.2687,23.933016076660156,43.3319,23.781816076660157Q43.3951,23.630616076660154,43.4657,23.482716076660154Q43.5363,23.334816076660154,43.6141,23.190416076660156Q43.692,23.046116076660155,43.7768,22.905736076660155Q43.8617,22.765356076660154,43.9535,22.629286076660158Q44.0452,22.493206076660158,44.1436,22.361756076660157Q44.242,22.230306076660156,44.3467,22.103796076660156Q44.4515,21.977286076660157,44.5624,21.856026076660157Q44.6733,21.734766076660158,44.79,21.619046076660155Q44.9068,21.503316076660155,45.0292,21.393416076660156Q45.1515,21.283506076660156,45.2792,21.179686076660154Q45.4068,21.075856076660155,45.5394,20.978366076660155Q45.6721,20.880876076660158,45.8094,20.789956076660157Q45.9467,20.699036076660157,46.0883,20.614896076660155Q46.23,20.530756076660158,46.3756,20.453616076660158Q46.5212,20.376466076660158,46.6705,20.306486076660157Q46.8198,20.236516076660156,46.9723,20.173886076660157Q47.1249,20.111256076660155,47.2804,20.056126076660156Q47.4359,20.000996076660158,47.5939,19.953486076660155Q47.7519,19.905976076660156,47.9121,19.866216076660155Q48.0723,19.826446076660154,48.2342,19.794516076660155Q48.3962,19.762586076660156,48.5595,19.738576076660156Q48.7229,19.714566076660155,48.8872,19.69852607666016Q49.0516,19.682476076660155,49.2165,19.674446076660157Q49.3814,19.666416076660155,49.5466,19.666416076660155Q49.7117,19.666416076660155,49.8766,19.674446076660157Q50.0415,19.682476076660155,50.2059,19.69852607666016Q50.3702,19.714566076660155,50.5336,19.738576076660156Q50.6969,19.762586076660156,50.8589,19.794516076660155Q51.0208,19.826446076660154,51.181,19.866216076660155Q51.3412,19.905976076660156,51.4992,19.953486076660155Q51.6572,20.000996076660158,51.8127,20.056126076660156Q51.9682,20.111256076660155,52.1208,20.173886076660157Q52.2733,20.236516076660156,52.4226,20.306486076660157Q52.5719,20.376466076660158,52.7175,20.453616076660158Q52.8631,20.530756076660158,53.0048,20.614896076660155Q53.1464,20.699036076660157,53.2837,20.789956076660157Q53.421,20.880876076660158,53.5537,20.978366076660155Q53.6863,21.075856076660155,53.8139,21.179686076660154Q53.9416,21.283506076660156,54.0639,21.393416076660156Q54.1863,21.503316076660155,54.3031,21.619046076660155Q54.4198,21.734766076660158,54.5307,21.856026076660157Q54.6416,21.977286076660157,54.7464,22.103796076660156Q54.8511,22.230306076660156,54.9495,22.361756076660157Q55.0479,22.493206076660158,55.1396,22.629286076660158Q55.2314,22.765356076660154,55.3163,22.905736076660155Q55.4011,23.046116076660155,55.479,23.190416076660156Q55.5568,23.334816076660154,55.6274,23.482716076660154Q55.698,23.630616076660154,55.7612,23.781816076660157Q55.8244,23.933016076660156,55.8801,24.087116076660156Q55.9357,24.24121607666016,55.9836,24.397816076660156Q56.0316,24.554416076660157,56.0717,24.713216076660157Q56.1118,24.872016076660156,56.144,25.03251607666016Q56.1762,25.193016076660157,56.2005,25.354916076660157Q56.2247,25.516816076660156,56.2409,25.679616076660157Q56.2571,25.842516076660154,56.2652,26.006016076660156Q56.2733,26.169416076660156,56.2733,26.333116076660154L56.2733,26.333416076660157L56.2732,26.333416076660157L56.2732,46.03291607666016Q56.2716,46.19561607666016,56.2539,46.35741607666016Q56.2363,46.519116076660154,56.2029,46.67851607666016Q56.1695,46.837816076660154,56.1205,46.99311607666016Q56.0716,47.148416076660155,56.0077,47.29831607666016Q55.9437,47.448116076660156,55.8653,47.59111607666016Q55.7869,47.73411607666016,55.6949,47.86881607666015Q55.6028,48.00361607666016,55.4979,48.12881607666016Q55.3931,48.25401607666016,55.2764,48.368416076660154Q55.1597,48.48291607666015,55.0324,48.58561607666016Q54.905,48.68831607666016,54.7681,48.77821607666016Q54.6313,48.86811607666016,54.4863,48.94431607666016Q54.3412,49.020616076660154,54.1894,49.082516076660156Q54.0375,49.14441607666016,53.8803,49.19131607666016Q53.7231,49.238316076660155,53.5621,49.269816076660156Q53.401,49.30141607666015,53.2376,49.31721607666016Q53.0742,49.333116076660154,52.91,49.333116076660154L52.9099,49.333116076660154L52.9099,49.33321607666016L56.2732,49.33321607666016L56.2732,49.33341607666016L13.72673,49.33341607666016L13.72672,49.33321607666016L17.0901,49.33321607666016L17.0901,49.333116076660154L17.09,49.333116076660154Q16.92552,49.333116076660154,16.76182,49.31721607666016Q16.59812,49.30131607666016,16.43677,49.26961607666016Q16.27542,49.237916076660156,16.11795,49.190816076660155Q15.96049,49.143716076660155,15.80842,49.081616076660154Q15.65634,49.01951607666015,15.51111,48.94301607666016Q15.36587,48.86641607666016,15.22887,48.776216076660155Q15.09186,48.68601607666016,14.96439,48.58301607666016Q14.83692,48.480016076660156,14.7202,48.36511607666016Q14.603480000000001,48.25021607666016,14.498619999999999,48.12461607666015Q14.39377,47.999016076660155,14.30178,47.86391607666015Q14.20979,47.72881607666016,14.13155,47.58541607666016Q14.05331,47.44201607666016,13.989550000000001,47.29171607666016Q13.925799999999999,47.14141607666016,13.87715,46.985716076660154Q13.82849,46.83001607666016,13.7954,46.67031607666016Q13.76231,46.510616076660156,13.7451,46.348516076660154Q13.72789,46.18641607666016,13.72673,46.023416076660155ZM30.3754,39.33321607666016L30.3754,42.66671607666015Q30.3754,42.83051607666016,30.3592,42.99351607666016Q30.343,43.15641607666016,30.3108,43.31701607666015Q30.2785,43.477616076660155,30.2306,43.634316076660156Q30.1826,43.791016076660156,30.1194,43.942316076660155Q30.0562,44.093616076660155,29.9783,44.23801607666016Q29.9004,44.38251607666015,29.8086,44.51861607666015Q29.7168,44.654816076660154,29.612,44.78141607666016Q29.5071,44.90801607666016,29.3903,45.02371607666016Q29.2735,45.13951607666016,29.1457,45.243416076660154Q29.018,45.34731607666016,28.8806,45.43831607666016Q28.7432,45.52931607666016,28.5975,45.60651607666016Q28.4518,45.683716076660154,28.2991,45.74631607666016Q28.1465,45.80901607666016,27.9884,45.85651607666016Q27.8303,45.90411607666016,27.6682,45.93601607666016Q27.5061,45.968016076660156,27.3417,45.984016076660154Q27.1773,46.000116076660156,27.012,46.000116076660156Q26.8468,46.000116076660156,26.6824,45.984016076660154Q26.5179,45.968016076660156,26.3559,45.93601607666016Q26.1938,45.90411607666016,26.0357,45.85651607666016Q25.8776,45.80901607666016,25.7249,45.74631607666016Q25.5723,45.683716076660154,25.4266,45.60651607666016Q25.2808,45.52931607666016,25.1435,45.43831607666016Q25.0061,45.34731607666016,24.8783,45.243416076660154Q24.7506,45.13951607666016,24.6338,45.02371607666016Q24.517,44.90801607666016,24.4121,44.78141607666016Q24.3073,44.654816076660154,24.2155,44.51861607666015Q24.1237,44.38251607666015,24.0458,44.238116076660155Q23.9679,44.093616076660155,23.9047,43.942316076660155Q23.8415,43.79111607666016,23.7935,43.634316076660156Q23.7455,43.477616076660155,23.7133,43.31701607666015Q23.6811,43.15641607666016,23.6649,42.99351607666016Q23.6487,42.83051607666016,23.6487,42.66671607666015L23.6487,39.33321607666016Q23.6487,39.16951607666016,23.6649,39.006516076660155Q23.6811,38.84351607666015,23.7133,38.682916076660156Q23.7455,38.52231607666016,23.7935,38.36561607666016Q23.8415,38.20891607666016,23.9047,38.05761607666015Q23.9679,37.90631607666016,24.0458,37.76191607666016Q24.1237,37.61751607666015,24.2155,37.48131607666016Q24.3073,37.34521607666016,24.4121,37.218616076660155Q24.517,37.09201607666016,24.6338,36.97621607666015Q24.7506,36.86041607666016,24.8783,36.756516076660155Q25.0061,36.65261607666015,25.1435,36.56171607666016Q25.2808,36.47071607666015,25.4266,36.393516076660156Q25.5723,36.31631607666016,25.7249,36.25361607666015Q25.8776,36.191016076660155,26.0357,36.14341607666016Q26.1938,36.09591607666016,26.3559,36.063916076660156Q26.5179,36.032016076660156,26.6824,36.01601607666016Q26.8468,35.999916076660156,27.012,35.999916076660156Q27.1773,35.999916076660156,27.3417,36.01601607666016Q27.5061,36.032016076660156,27.6682,36.063916076660156Q27.8303,36.09591607666016,27.9884,36.14341607666016Q28.1465,36.191016076660155,28.2991,36.25361607666015Q28.4518,36.31631607666016,28.5975,36.393516076660156Q28.7432,36.47071607666015,28.8806,36.56171607666016Q29.018,36.65261607666015,29.1457,36.756516076660155Q29.2735,36.86041607666016,29.3903,36.97621607666015Q29.5071,37.09201607666016,29.612,37.218616076660155Q29.7168,37.34521607666016,29.8086,37.48131607666016Q29.9004,37.61751607666015,29.9783,37.76191607666016Q30.0562,37.90631607666016,30.1194,38.05761607666015Q30.1826,38.20891607666016,30.2306,38.36561607666016Q30.2785,38.52231607666016,30.3108,38.682916076660156Q30.343,38.84351607666015,30.3592,39.006516076660155Q30.3754,39.16951607666016,30.3754,39.33321607666016ZM46.3515,39.33321607666016L46.3515,42.66671607666015Q46.3515,42.83051607666016,46.3353,42.99351607666016Q46.3191,43.15641607666016,46.2869,43.31701607666015Q46.2546,43.477616076660155,46.2067,43.634316076660156Q46.1587,43.791016076660156,46.0955,43.942316076660155Q46.0322,44.093616076660155,45.9543,44.23801607666016Q45.8764,44.38251607666015,45.7846,44.51861607666015Q45.6929,44.654816076660154,45.588,44.78141607666016Q45.4832,44.90801607666016,45.3664,45.02371607666016Q45.2495,45.13951607666016,45.1218,45.243416076660154Q44.9941,45.34731607666016,44.8567,45.43831607666016Q44.7193,45.52931607666016,44.5736,45.60651607666016Q44.4279,45.683716076660154,44.2752,45.74631607666016Q44.1226,45.80901607666016,43.9645,45.85651607666016Q43.8063,45.90411607666016,43.6443,45.93601607666016Q43.4822,45.968016076660156,43.3178,45.984016076660154Q43.1534,46.000116076660156,42.9881,46.000116076660156Q42.8229,46.000116076660156,42.6585,45.984016076660154Q42.494,45.968016076660156,42.332,45.93601607666016Q42.1699,45.90411607666016,42.0118,45.85651607666016Q41.8537,45.80901607666016,41.701,45.74631607666016Q41.5484,45.683716076660154,41.4026,45.60651607666016Q41.2569,45.52931607666016,41.1195,45.43831607666016Q40.9821,45.34731607666016,40.8544,45.243416076660154Q40.7267,45.13951607666016,40.6099,45.02371607666016Q40.493,44.90801607666016,40.3882,44.78141607666016Q40.2834,44.654816076660154,40.1916,44.51861607666015Q40.0998,44.38251607666015,40.0219,44.238116076660155Q39.944,44.093616076660155,39.8808,43.942316076660155Q39.8175,43.79111607666016,39.7696,43.634316076660156Q39.7216,43.477616076660155,39.6894,43.31701607666015Q39.6571,43.15641607666016,39.641,42.99351607666016Q39.6248,42.83051607666016,39.6248,42.66671607666015L39.6248,39.33321607666016Q39.6248,39.16951607666016,39.641,39.006516076660155Q39.6571,38.84351607666015,39.6894,38.682916076660156Q39.7216,38.52231607666016,39.7696,38.36561607666016Q39.8175,38.20891607666016,39.8808,38.05761607666015Q39.944,37.90631607666016,40.0219,37.76191607666016Q40.0998,37.61751607666015,40.1916,37.48131607666016Q40.2834,37.34521607666016,40.3882,37.218616076660155Q40.493,37.09201607666016,40.6099,36.97621607666015Q40.7267,36.86041607666016,40.8544,36.756516076660155Q40.9821,36.65261607666015,41.1195,36.56171607666016Q41.2569,36.47071607666015,41.4026,36.393516076660156Q41.5484,36.31631607666016,41.701,36.25361607666015Q41.8537,36.191016076660155,42.0118,36.14341607666016Q42.1699,36.09591607666016,42.332,36.063916076660156Q42.494,36.032016076660156,42.6585,36.01601607666016Q42.8229,35.999916076660156,42.9881,35.999916076660156Q43.1534,35.999916076660156,43.3178,36.01601607666016Q43.4822,36.032016076660156,43.6443,36.063916076660156Q43.8063,36.09591607666016,43.9645,36.14341607666016Q44.1226,36.191016076660155,44.2752,36.25361607666015Q44.4279,36.31631607666016,44.5736,36.393516076660156Q44.7193,36.47071607666015,44.8567,36.56171607666016Q44.9941,36.65261607666015,45.1218,36.756516076660155Q45.2495,36.86041607666016,45.3664,36.97621607666015Q45.4832,37.09201607666016,45.588,37.218616076660155Q45.6929,37.34521607666016,45.7846,37.48131607666016Q45.8764,37.61751607666015,45.9543,37.76191607666016Q46.0322,37.90631607666016,46.0955,38.05761607666015Q46.1587,38.20891607666016,46.2067,38.36561607666016Q46.2546,38.52231607666016,46.2869,38.682916076660156Q46.3191,38.84351607666015,46.3353,39.006516076660155Q46.3515,39.16951607666016,46.3515,39.33321607666016Z" fill-rule="evenodd" fill="#000000" fill-opacity="1"/></g></g></g></svg>